<svg xmlns="http://www.w3.org/2000/svg" width="18" height="18" viewBox="0 0 48 48">
  <path fill="#4285F4" d="M23.5 12.3c1.9 0 3.6.6 5.1 1.8l3.8-3.8C29.8 7.8 26.9 6.5 23.5 6.5 18.3 6.5 13.8 9.7 11.6 14.1l4.6 3.6c1.1-2.8 3.7-4.7 7.3-4.7z"/>
  <path fill="#34A853" d="M41 24.5c0-1.3-.1-2.3-.3-3.5H23.5v6.6h9.9c-.4 2-1.6 3.7-3.3 4.9v4h5.3c3.1-2.8 5-7 5-12z"/>
  <path fill="#FBBC05" d="M16.2 28.4c-.5-1.2-.8-2.5-.8-3.9s.3-2.7.8-3.9v-4.6h-4.6C10.6 18.2 10 20.3 10 24c0 3.7.6 5.8 1.6 7.9l4.6-3.5z"/>
  <path fill="#EA4335" d="M23.5 41c3.4 0 6.2-1.1 8.3-3l-4-3.2c-1.1.7-2.5 1.1-4.3 1.1-3.5 0-6.3-2.4-7.3-5.6l-4.6 3.5C13.7 37.6 18.2 41 23.5 41z"/>
</svg>
